<svg width="32" height="32" viewBox="0 0 32 32" fill="none" xmlns="http://www.w3.org/2000/svg">
<rect width="32" height="32" rx="10" fill="#FFBF00"/>
<path fill-rule="evenodd" clip-rule="evenodd" d="M21.0221 21.6032H20.5931C20.5208 21.6278 20.4449 21.6404 20.3685 21.6405H12.847C12.6605 21.6405 12.4817 21.5664 12.3498 21.4346C12.218 21.3027 12.1439 21.1239 12.1439 20.9374V18.8994C12.1439 18.713 12.218 18.5342 12.3498 18.4023C12.4817 18.2705 12.6605 18.1964 12.847 18.1964H20.3685C20.4237 18.1966 20.4787 18.2033 20.5324 18.2164C21.4428 18.1014 22.1549 17.2633 22.1549 16.3253L22.0758 10.6472C22.0741 10.1634 21.881 9.70003 21.5386 9.35829C21.1962 9.01655 20.7324 8.82427 20.2487 8.82349H7.31527C7.14336 8.82332 6.97852 8.75505 6.85684 8.63363C6.73516 8.5122 6.66654 8.34751 6.66602 8.17561V5.98135C6.66656 5.80944 6.73518 5.64475 6.85685 5.52332C6.97853 5.40189 7.14336 5.3336 7.31527 5.3334H20.948C23.4907 5.3334 25.5726 7.4115 25.5726 9.94945L25.6673 17.0279C25.6673 19.5822 23.5766 21.6032 21.0221 21.6032ZM11.3112 13.6628L11.3628 13.6641C11.4339 13.6404 11.5084 13.6283 11.5833 13.6282H15.2376C15.4241 13.6282 15.6029 13.7023 15.7347 13.8342C15.8666 13.966 15.9407 14.1448 15.9407 14.3313V16.5101C15.9407 16.6024 15.9225 16.6938 15.8872 16.7791C15.8518 16.8644 15.8 16.9419 15.7347 17.0072C15.6695 17.0725 15.592 17.1243 15.5067 17.1596C15.4214 17.195 15.3299 17.2131 15.2376 17.2131H11.6442C11.2308 17.2993 10.8596 17.525 10.5927 17.8523C10.3259 18.1795 10.1796 18.5886 10.1784 19.0109V25.8073L10.1797 26.0147C10.1793 26.1875 10.1105 26.3532 9.98831 26.4754C9.86609 26.5976 9.70041 26.6664 9.52757 26.6667H7.31813C7.14528 26.6664 6.97961 26.5976 6.85738 26.4754C6.73516 26.3532 6.66634 26.1875 6.66602 26.0147V18.3082C6.66977 17.0773 7.16038 15.898 8.03072 15.0276C8.90105 14.1573 10.0804 13.6666 11.3112 13.6628Z" fill="black"/>
<path fill-rule="evenodd" clip-rule="evenodd" d="M18.7531 9.62216C19.1423 9.62216 19.5228 9.73758 19.8464 9.95382C20.17 10.1701 20.4222 10.4774 20.5712 10.837C20.7201 11.1966 20.7591 11.5923 20.6832 11.974C20.6072 12.3557 20.4198 12.7064 20.1446 12.9816C19.8693 13.2568 19.5187 13.4442 19.1369 13.5202C18.7552 13.5961 18.3595 13.5571 17.9999 13.4082C17.6403 13.2592 17.333 13.007 17.1168 12.6833C16.9005 12.3597 16.7851 11.9792 16.7852 11.59C16.7852 11.0681 16.9925 10.5676 17.3616 10.1985C17.7306 9.82949 18.2312 9.62216 18.7531 9.62216Z" fill="black"/>
</svg>
